<svg width="18" height="22" viewBox="0 0 18 22" fill="none" xmlns="http://www.w3.org/2000/svg">
<g clip-path="url(#clip0_846_10906)">
<path d="M16.7407 7.2486C15.3249 8.12343 14.4505 9.62314 14.4505 11.2895C14.4505 13.1641 15.5748 14.8721 17.282 15.5803C16.9488 16.6635 16.4492 17.6633 15.8246 18.5797C14.9086 19.8712 13.9509 21.2042 12.5352 21.2042C11.1194 21.2042 10.7031 20.3711 9.03752 20.3711C7.41362 20.3711 6.83068 21.2459 5.49824 21.2459C4.16581 21.2459 3.24976 20.0378 2.2088 18.5381C0.834724 16.4552 0.0435917 14.039 0.00195312 11.4978C0.00195312 7.37358 2.66682 5.16567 5.33169 5.16567C6.7474 5.16567 7.91328 6.08216 8.78769 6.08216C9.62046 6.08216 10.9529 5.12401 12.5352 5.12401C14.2007 5.08235 15.783 5.87387 16.7407 7.2486ZM11.7857 3.37435C12.4935 2.54118 12.8683 1.49971 12.9099 0.416586C12.9099 0.29161 12.9099 0.124976 12.8683 0C11.6607 0.124976 10.5365 0.708197 9.74537 1.62469C9.03752 2.4162 8.62113 3.41601 8.5795 4.49913C8.5795 4.62411 8.5795 4.74908 8.62113 4.87406C8.70441 4.87406 8.82933 4.91572 8.9126 4.91572C10.0368 4.8324 11.0778 4.24918 11.7857 3.37435Z" fill="#27272A"/>
</g>
<defs>
<clipPath id="clip0_846_10906">
<rect width="17.28" height="21.2459" fill="white"/>
</clipPath>
</defs>
</svg>
