<svg width="18" height="22" viewBox="0 0 18 22" fill="none" xmlns="http://www.w3.org/2000/svg">
<g clip-path="url(#clip0_822_10729)">
<path d="M16.7407 7.24837C15.3249 8.1232 14.4505 9.62292 14.4505 11.2893C14.4505 13.1639 15.5748 14.8719 17.282 15.5801C16.9488 16.6632 16.4492 17.663 15.8246 18.5795C14.9086 19.8709 13.9509 21.204 12.5352 21.204C11.1194 21.204 10.7031 20.3708 9.03752 20.3708C7.41362 20.3708 6.83068 21.2457 5.49824 21.2457C4.16581 21.2457 3.24976 20.0376 2.2088 18.5379C0.834724 16.4549 0.0435917 14.0387 0.00195312 11.4976C0.00195312 7.37335 2.66682 5.16544 5.33169 5.16544C6.7474 5.16544 7.91328 6.08193 8.78769 6.08193C9.62046 6.08193 10.9529 5.12378 12.5352 5.12378C14.2007 5.08212 15.783 5.87364 16.7407 7.24837ZM11.7857 3.37412C12.4935 2.54095 12.8683 1.49948 12.9099 0.416357C12.9099 0.291382 12.9099 0.124747 12.8683 -0.000228882C11.6607 0.124747 10.5365 0.707968 9.74537 1.62446C9.03752 2.41597 8.62113 3.41578 8.5795 4.4989C8.5795 4.62388 8.5795 4.74886 8.62113 4.87383C8.70441 4.87383 8.82933 4.91549 8.9126 4.91549C10.0368 4.83217 11.0778 4.24895 11.7857 3.37412Z" fill="#FAFAFA"/>
</g>
<defs>
<clipPath id="clip0_822_10729">
<rect width="17.28" height="21.2459" fill="white"/>
</clipPath>
</defs>
</svg>
