<svg width="20" height="21" viewBox="0 0 20 21" fill="none" xmlns="http://www.w3.org/2000/svg">
<path d="M0.36205 0.888808C0.132719 1.12287 0 1.48729 0 1.95922V18.7928C0 19.2648 0.132719 19.6292 0.36205 19.8632L0.418651 19.9146L10.0935 10.4854V10.2628L0.418651 0.833624L0.36205 0.888808Z" fill="#FAFAFA"/>
<path d="M14.489 13.6302L11.2676 10.4856V10.263L14.4929 7.11831L14.5651 7.15923L18.3847 9.27817C19.4747 9.87951 19.4747 10.8691 18.3847 11.4742L14.5651 13.5893L14.489 13.6302Z" fill="#FAFAFA"/>
<path d="M13.9782 14.1743L10.6807 10.9593L0.949219 20.4484C1.31127 20.8194 1.90168 20.8642 2.57308 20.4931L13.9782 14.1743Z" fill="#FAFAFA"/>
<path d="M13.9782 6.5725L2.57308 0.253714C1.90168 -0.113558 1.31127 -0.06884 0.949219 0.302238L10.6807 9.78755L13.9782 6.5725Z" fill="#FAFAFA"/>
</svg>
