<svg width="20" height="21" viewBox="0 0 20 21" fill="none" xmlns="http://www.w3.org/2000/svg">
<path d="M0.36205 0.88922C0.132719 1.12328 0 1.4877 0 1.95964V18.7932C0 19.2652 0.132719 19.6296 0.36205 19.8637L0.418651 19.915L10.0935 10.4859V10.2632L0.418651 0.834036L0.36205 0.88922Z" fill="#27272A"/>
<path d="M14.489 13.6299L11.2676 10.4852V10.2626L14.4929 7.11795L14.5651 7.15886L18.3847 9.27781C19.4747 9.87914 19.4747 10.8687 18.3847 11.4738L14.5651 13.589L14.489 13.6299Z" fill="#27272A"/>
<path d="M13.9782 14.1743L10.6807 10.9592L0.949219 20.4483C1.31127 20.8194 1.90168 20.8641 2.57308 20.493L13.9782 14.1743Z" fill="#27272A"/>
<path d="M13.9782 6.57206L2.57308 0.253271C1.90168 -0.114 1.31127 -0.0692825 0.949219 0.301796L10.6807 9.78711L13.9782 6.57206Z" fill="#27272A"/>
</svg>
